# xmcd
#
# Track frame offsets: 
#        182
#        12287
#        24147
#        35960
#        48762
#        63705
#        77225
#        90595
#        103227
#        113917
#
# Disc length: 1686 seconds
#
# Revision: 1
# Processed by: cddbd v1.5.2PL0 Copyright (c) Steve Scherf et al.
# Submitted via: ExactAudioCopy v1.0b1
#
DISCID=7c06940a
DTITLE=Sam And Dave - Soothe Me
DYEAR=1993
DGENRE=R&B
TTITLE0=You Don't Know Like I Know
TTITLE1=Hold On I'm A Comin'
TTITLE2=Said I Wasn't Gonna Tell Nobody
TTITLE3=You Got Me Hummin'
TTITLE4=When Something Is Wrong With My Baby
TTITLE5=Soothe Me
TTITLE6=A Place Nobody Can Find
TTITLE7=Goodnight Baby
TTITLE8=Blame Me (Don't Blame My Heart)
TTITLE9=Don't Make It So Hard On Me
EXTD=Rhino Special Edition (c) 1993
EXTT0=
EXTT1=
EXTT2=
EXTT3=
EXTT4=
EXTT5=
EXTT6=
EXTT7=
EXTT8=
EXTT9=
PLAYORDER=
